<?xml version="1.0" standalone="no"?>
<!DOCTYPE svg PUBLIC "-//W3C//DTD SVG 20010904//EN"
 "http://www.w3.org/TR/2001/REC-SVG-20010904/DTD/svg10.dtd">
<svg version="1.0" xmlns="http://www.w3.org/2000/svg"
 width="700.000000pt" height="700.000000pt" viewBox="0 0 700.000000 700.000000"
 preserveAspectRatio="xMidYMid meet">
<metadata>
Created by potrace 1.11, written by Peter Selinger 2001-2013
</metadata>
<g transform="translate(0.000000,700.000000) scale(0.100000,-0.100000)"
fill="#000000" stroke="none">
<path d="M3245 6869 c-969 -62 -1545 -471 -1740 -1234 -42 -163 -59 -299 -86
-690 -12 -170 -23 -312 -25 -314 -2 -3 -14 5 -27 17 -70 66 -226 87 -319 43
-97 -47 -166 -147 -210 -306 -20 -72 -22 -104 -22 -320 0 -209 3 -253 21 -338
12 -54 34 -119 49 -145 39 -69 222 -244 355 -342 l116 -85 6 -215 c7 -261 20
-336 98 -580 40 -122 68 -234 85 -330 32 -190 53 -257 131 -423 50 -107 74
-175 103 -292 41 -163 53 -193 105 -265 47 -65 61 -97 111 -243 52 -152 104
-254 175 -343 57 -72 185 -194 204 -194 6 0 20 18 30 40 10 22 21 37 26 35 4
-3 22 -30 39 -60 17 -30 35 -55 39 -55 4 0 18 23 32 52 l26 52 49 -62 c27 -34
54 -62 60 -62 6 0 19 18 29 40 10 23 22 43 25 45 4 3 29 -22 54 -55 26 -33 51
-60 55 -60 4 0 17 21 30 47 l23 47 35 -57 c19 -31 40 -57 47 -57 7 0 27 16 45
34 l34 35 43 -35 43 -35 40 26 40 27 56 -43 57 -43 19 23 c10 12 28 35 39 49
l20 27 25 -30 c14 -16 28 -42 31 -56 8 -34 54 -39 54 -6 0 21 39 87 51 87 4 0
23 -20 44 -46 33 -40 39 -44 56 -32 10 7 36 26 58 41 l39 28 42 -27 41 -27 39
38 40 39 38 -37 c21 -20 42 -37 48 -37 5 0 25 25 43 57 l34 56 24 -46 c13 -26
27 -47 31 -47 4 1 27 27 52 60 25 33 47 59 51 60 3 0 15 -20 27 -45 12 -25 26
-45 31 -45 5 0 31 27 57 60 26 33 48 60 50 60 2 0 15 -22 29 -50 14 -27 28
-50 30 -50 3 0 23 28 44 61 l39 62 21 -42 c12 -22 26 -41 31 -41 14 0 116 92
170 154 101 115 137 182 205 376 54 154 62 172 121 257 46 69 70 132 108 295
17 72 46 151 90 245 80 173 108 262 135 431 14 91 40 191 80 315 77 237 91
316 105 589 l11 228 115 86 c155 116 249 202 310 282 85 113 114 251 114 542
-1 149 -5 204 -22 283 -46 219 -138 331 -290 358 -75 13 -166 -7 -229 -51
l-42 -29 -5 42 c-3 23 -10 116 -16 207 -32 492 -58 677 -126 880 -178 533
-561 874 -1149 1025 -300 77 -684 108 -1050 84z m525 -139 c840 -64 1337 -390
1545 -1012 68 -207 85 -332 130 -1008 29 -435 30 -444 51 -465 21 -20 77 -19
96 3 9 9 20 51 26 93 25 170 98 250 217 236 59 -6 96 -35 133 -105 55 -103 66
-172 67 -402 0 -319 -20 -394 -132 -512 -60 -63 -273 -242 -279 -235 -2 1 -8
70 -14 152 -20 281 -65 585 -87 592 -6 2 -34 -40 -63 -94 -28 -54 -76 -137
-106 -184 l-54 -87 -15 -163 c-12 -128 -19 -168 -33 -184 -10 -11 -73 -80
-140 -153 -68 -73 -128 -143 -136 -155 -7 -12 -26 -66 -41 -119 -16 -54 -31
-98 -34 -98 -3 0 -19 19 -36 41 -41 57 -129 136 -179 161 -22 12 -80 27 -128
34 -48 7 -128 29 -178 47 -88 33 -300 153 -300 169 0 4 9 8 21 8 36 0 78 38
89 81 23 83 -32 241 -99 286 -83 56 -275 -7 -221 -72 16 -19 40 -19 76 0 47
24 89 19 116 -14 30 -35 51 -104 46 -156 -3 -39 -4 -40 -45 -43 -27 -2 -68 6
-115 23 -110 40 -111 40 -149 8 -95 -82 -179 -107 -333 -101 -125 5 -192 28
-273 94 -49 40 -49 40 -157 -1 -47 -18 -84 -25 -115 -23 -44 3 -46 5 -49 36
-5 46 23 134 52 165 30 32 69 35 121 10 43 -20 70 -9 70 28 0 38 -74 71 -148
67 -49 -4 -62 -9 -91 -37 -53 -52 -79 -122 -80 -214 -1 -76 0 -79 32 -108 18
-16 40 -29 50 -29 43 0 26 -17 -75 -77 -147 -86 -239 -122 -367 -145 -136 -23
-168 -41 -274 -153 -50 -52 -84 -81 -86 -73 -3 7 -18 57 -34 110 l-30 97 -149
163 -149 164 -13 159 c-11 152 -14 163 -43 210 -54 86 -154 262 -168 294 -19
46 -37 38 -49 -21 -29 -145 -71 -521 -71 -640 0 -32 -3 -58 -6 -58 -4 0 -57
41 -119 90 -126 101 -215 192 -245 251 -50 96 -71 482 -36 652 27 136 78 225
143 253 125 54 235 -37 258 -213 13 -104 26 -123 80 -123 60 0 61 7 90 415 52
750 64 850 132 1060 94 293 264 533 490 694 100 72 309 176 428 215 325 105
765 148 1185 116z m-300 -3917 c0 -7 11 -13 25 -13 18 0 25 5 25 18 0 10 12
29 26 43 22 21 27 22 34 8 5 -9 17 -26 27 -38 l18 -22 38 27 c21 14 40 24 41
22 1 -1 15 -20 30 -41 l28 -39 38 37 38 37 26 -51 c15 -28 29 -51 33 -51 4 0
24 16 44 36 l37 36 26 -51 c15 -28 30 -51 34 -51 4 0 18 17 31 37 l23 36 34
-54 c18 -30 34 -57 34 -61 0 -20 28 -5 44 24 21 34 22 34 59 -33 l18 -32 28
27 28 27 28 -43 28 -42 19 24 c10 13 23 30 28 39 9 14 13 12 30 -11 11 -14 29
-37 40 -50 l19 -23 34 33 35 34 20 -88 20 -88 -45 -50 c-97 -108 -150 -210
-179 -343 l-17 -82 -19 25 c-24 29 -49 31 -73 4 -18 -19 -18 -19 -57 33 -21
28 -44 52 -50 52 -6 0 -20 -24 -31 -54 l-21 -54 -35 72 c-19 39 -41 71 -47 71
-7 0 -23 -33 -36 -72 l-25 -73 -48 73 c-27 40 -53 71 -59 69 -10 -3 -14 -14
-41 -110 -18 -63 -24 -64 -66 -6 -19 28 -19 31 -4 106 20 96 23 235 6 285 -7
21 -30 53 -53 73 -63 53 -124 70 -253 70 -105 0 -114 -2 -177 -33 -76 -37
-103 -66 -119 -126 -14 -49 -6 -204 15 -288 13 -58 13 -58 -16 -98 -33 -44
-42 -44 -53 -3 -19 80 -37 133 -46 133 -5 0 -30 -32 -55 -70 -26 -39 -50 -68
-53 -64 -3 3 -15 33 -27 67 -11 33 -26 63 -32 65 -6 2 -26 -26 -44 -62 -18
-36 -35 -66 -39 -66 -3 0 -14 20 -23 45 -10 25 -21 47 -26 50 -5 3 -28 -20
-51 -50 l-42 -56 -27 26 -26 25 -24 -25 c-13 -14 -27 -25 -30 -25 -4 0 -11 23
-14 52 -16 115 -92 264 -184 360 l-45 47 18 83 c9 46 19 86 21 90 2 3 18 -8
35 -25 l32 -31 41 48 42 48 27 -34 27 -33 20 24 c12 13 25 31 30 40 7 14 13
12 39 -13 l29 -28 25 47 24 48 22 -32 c12 -17 26 -31 31 -31 5 0 25 27 45 61
l37 60 24 -35 c14 -20 28 -36 33 -36 4 0 18 23 31 50 13 28 26 50 30 50 3 0
21 -16 40 -35 38 -39 47 -36 75 25 l18 41 40 -38 39 -38 16 24 c44 64 43 64
84 36 20 -14 39 -25 42 -25 2 0 14 16 26 36 l22 35 29 -27 c16 -15 29 -34 29
-41z"/>
<path d="M3055 6193 c-27 -6 -44 -30 -38 -53 6 -24 -4 -22 113 -24 80 -1 104
-6 154 -29 69 -32 92 -34 106 -8 15 30 4 46 -53 73 -83 41 -207 59 -282 41z"/>
<path d="M3975 6095 c-11 -8 -44 -22 -73 -31 -63 -19 -82 -44 -53 -73 17 -17
25 -18 63 -10 51 12 117 47 132 72 24 38 -30 72 -69 42z"/>
<path d="M3498 6049 c-10 -5 -18 -21 -18 -34 0 -39 66 -68 165 -72 86 -4 127
8 133 40 7 37 -16 47 -87 41 -62 -6 -85 -2 -161 29 -8 4 -23 2 -32 -4z"/>
<path d="M3074 5946 c-9 -37 5 -48 76 -58 78 -10 106 -25 189 -102 67 -61 118
-86 173 -86 30 0 51 22 46 46 -4 20 -18 28 -74 43 -27 7 -63 31 -105 70 -86
79 -137 103 -226 109 -71 5 -72 4 -79 -22z"/>
<path d="M2707 5938 c-12 -9 -18 -23 -15 -39 3 -22 8 -24 74 -30 111 -10 163
-44 269 -173 111 -135 191 -186 296 -186 39 0 51 4 59 21 17 30 -12 59 -59 59
-62 0 -132 41 -192 111 -95 112 -183 194 -233 218 -60 29 -172 40 -199 19z"/>
<path d="M3909 5883 c-46 -24 -83 -36 -127 -40 -67 -6 -85 -19 -80 -55 3 -22
7 -23 78 -23 63 1 86 6 142 32 64 30 108 63 108 82 0 14 -30 41 -43 40 -7 -1
-42 -17 -78 -36z"/>
<path d="M4305 5714 c-47 -37 -111 -56 -230 -65 -135 -11 -206 -26 -303 -67
-56 -23 -68 -32 -70 -53 -6 -51 18 -54 123 -14 80 30 119 38 219 46 175 14
295 55 330 112 24 39 -30 72 -69 41z"/>
<path d="M2409 5487 c-69 -20 -130 -59 -195 -129 -60 -65 -103 -132 -92 -144
4 -3 35 13 70 37 78 53 177 96 243 104 71 10 112 -10 202 -97 69 -66 236 -258
230 -264 -1 -1 -40 11 -86 26 -197 66 -402 43 -577 -66 -81 -50 -188 -158
-229 -230 l-27 -49 -134 3 c-131 3 -134 3 -159 -22 -32 -32 -35 -96 -5 -126
18 -18 33 -20 128 -20 l107 0 0 -127 c0 -106 4 -141 23 -203 95 -304 391 -510
699 -486 169 13 318 82 438 201 115 116 175 242 197 413 10 82 14 91 60 151
l49 64 -31 28 c-72 67 -8 144 135 163 90 12 205 -25 230 -75 20 -38 19 -43
-16 -84 l-31 -35 51 -66 c45 -59 51 -72 51 -114 0 -26 9 -82 20 -126 62 -245
248 -435 493 -502 99 -27 271 -22 372 11 109 36 197 89 276 168 146 145 221
352 200 552 l-7 67 106 0 c135 0 150 8 150 85 0 80 -14 86 -179 84 l-131 -1
-51 76 c-206 308 -627 396 -935 195 -58 -38 -161 -136 -197 -188 l-16 -24 -50
46 -50 47 -248 0 -249 0 -44 -45 c-24 -25 -47 -45 -51 -45 -4 0 -25 25 -48 55
-29 38 -38 57 -29 60 7 3 78 20 158 38 l145 33 3 212 c1 134 -1 212 -7 212
-11 0 -13 -6 -60 -194 -16 -65 -35 -122 -41 -126 -13 -8 -150 -24 -154 -18 -1
2 -38 48 -82 103 -105 133 -225 257 -288 299 -99 66 -247 98 -337 73z m285
-582 c212 -55 376 -235 408 -448 57 -374 -282 -693 -654 -616 -190 39 -363
205 -413 394 -19 76 -19 204 0 280 49 186 211 345 398 391 73 17 192 17 261
-1z m1860 0 c271 -71 448 -334 408 -607 -17 -114 -72 -224 -152 -305 -216
-216 -557 -218 -771 -4 -109 109 -159 231 -159 386 0 155 50 278 159 386 71
70 162 122 254 145 73 17 192 17 261 -1z m-2789 -310 c0 -13 -8 -21 -22 -23
-17 -3 -23 2 -23 16 0 10 3 22 7 26 13 13 38 1 38 -19z m110 0 c0 -13 -8 -21
-22 -23 -17 -3 -23 2 -23 16 0 10 3 22 7 26 13 13 38 1 38 -19z m3280 0 c0
-13 -8 -21 -22 -23 -17 -3 -23 2 -23 16 0 10 3 22 7 26 13 13 38 1 38 -19z
m110 0 c0 -13 -8 -21 -22 -23 -17 -3 -23 2 -23 16 0 10 3 22 7 26 13 13 38 1
38 -19z"/>
<path d="M2483 4488 c-128 -128 -233 -240 -233 -248 0 -20 20 -40 40 -40 17 0
480 459 480 477 0 15 -28 43 -43 43 -6 0 -116 -104 -244 -232z"/>
<path d="M2612 4388 c-90 -90 -168 -171 -173 -180 -13 -25 6 -58 34 -58 26 0
357 326 357 352 0 19 -26 48 -43 48 -6 0 -84 -73 -175 -162z"/>
<path d="M4343 4488 c-128 -128 -233 -240 -233 -248 0 -20 20 -40 40 -40 17 0
480 459 480 476 0 13 -32 44 -45 44 -5 0 -114 -104 -242 -232z"/>
<path d="M4472 4387 c-90 -89 -168 -170 -173 -179 -13 -25 6 -58 33 -58 14 0
75 53 181 158 87 86 163 165 168 175 14 25 3 54 -24 61 -18 4 -50 -23 -185
-157z"/>
<path d="M4575 5440 c-125 -57 -762 -330 -770 -330 -6 0 -28 29 -49 65 -21 36
-42 62 -47 59 -15 -9 -11 -294 3 -294 7 0 212 66 456 148 l443 147 62 -34 c34
-19 79 -44 99 -55 20 -12 40 -18 43 -14 11 11 -188 318 -205 317 -8 0 -24 -4
-35 -9z"/>
<path d="M3497 5183 c-3 -5 -11 -55 -18 -111 -10 -76 -10 -105 -2 -113 25 -25
41 -1 52 83 19 135 19 143 -6 146 -11 2 -23 -1 -26 -5z"/>
<path d="M1104 4341 c-49 -30 -69 -94 -68 -216 1 -99 28 -284 45 -317 12 -22
58 -23 66 -2 3 9 -2 71 -12 137 -32 211 -21 332 30 332 15 0 25 -14 40 -57 24
-68 36 -82 63 -74 30 10 34 33 16 94 -30 106 -105 149 -180 103z"/>
<path d="M5765 4327 c-35 -35 -71 -131 -59 -160 8 -21 43 -32 57 -18 6 6 21
37 32 69 15 43 25 57 40 57 50 0 61 -123 30 -333 -10 -66 -15 -127 -12 -136 8
-21 54 -20 66 2 18 35 44 220 45 322 0 87 -3 113 -21 152 -38 83 -120 103
-178 45z"/>
</g>
</svg>
