<svg height="1587" viewBox="0 0 1400 1587" width="1400" xmlns="http://www.w3.org/2000/svg"><g fill="none" fill-rule="evenodd" transform="translate(4 4)"><path d="m1081.29676 800.81829c50.98222-16.889708 59.03134-42.028031 50.94896-73.751944-8.08239-31.723913-47.70936-42.659982-65.04491-85.113749-17.33555-42.453766-41.76897-78.900677-73.393376-105.708681-31.624411-26.814655-28.704109-53.968569-2.195216-85.053879 26.502242-31.08531 16.683642-69.281726-5.554561-94.306965-26.522197-29.848017-36.334146-82.645815-67.519514-144.390701-57.308434-113.465041-111.862871-214.51059293-454.921206-212.46174303-246.345113 1.47011632-464.8141787 159.30473203-463.616937 403.37065003.74246421 149.725694 40.8579028 263.330429 160.489576 406.809791 59.494338 71.357185 27.479445 291.083701-70.9393937 364.861581 0 0 220.3783717 78.89469 324.6817187 174.88398 94.307132 86.78941 167.913381 233.04337 167.913381 233.04337s-18.917438-54.32679 16.552591-110.80619c39.829861-63.42056 55.356689-45.71463 104.782303-98.20045 42.833316-45.47582 36.553668-110.16626 36.553668-110.16626l329.442006-32.89402 70.41321-141.89416-39.63362-67.61338-27.24063-48.656192v-85.533496z" fill="#fff"/><path d="m1046.10013 703.105445c17.10938 22.736912-14.62146 25.730362-14.62146 25.730362s-40.511712 8.088966-61.266479 27.5863c-20.761419 19.503987-19.590637 53.196925 3.026737 60.194944 22.624026 6.991368 37.458362-14.588077 58.951522-30.526533 21.49316-15.945108 37.63132-15.652415 39.72675-6.199766 2.09543 9.445996-24.67289 5.494643-23.40898 19.191337 1.27056 13.696695 32.78854 1.736201 32.78854 1.736201 50.98222-16.889708 59.03134-42.028031 50.94896-73.751944-8.08239-31.723913-47.70936-42.659982-65.04491-85.113749-17.33555-42.453766-41.76897-78.900677-73.393376-105.708681-31.624411-26.814655-28.704109-53.968569-2.195216-85.053879 26.502242-31.08531 16.683642-69.281726-5.554561-94.306965-26.522197-29.848017-36.334146-82.645815-67.519514-144.390701-57.308434-113.465041-111.862871-214.51059293-454.921206-212.46174303-246.345113 1.47011632-464.8141787 159.30473203-463.616937 403.37065003.74246421 149.725694 40.8579028 263.330429 160.489576 406.809791 59.494338 71.357185 27.479445 291.083701-70.9393937 364.861581 0 0 220.3783717 78.89469 324.6817187 174.88398 94.307132 86.78941 167.913381 233.04337 167.913381 233.04337s-18.917438-54.32679 16.552591-110.80619c39.829861-63.42056 55.356689-45.71463 104.782303-98.20045 42.833316-45.47582 36.553668-110.16626 36.553668-110.16626" stroke="#000" stroke-linecap="round" stroke-linejoin="round" stroke-width="7.982603"/><path d="m912.285104 427.827826 35.66893 58.658307-122.43982 63.760475 122.512994 36.7263-21.825766 22.251308 18.486377 37.025644-35.542538 92.730415" stroke="#000" stroke-linecap="round" stroke-linejoin="round" stroke-width="7.982603"/><path d="m926.820093 497.495375c9.313037 0 16.876553 18.619256 16.876553 41.562384 0 22.936475-7.563516 41.555731-16.876553 41.555731-9.313036 0-16.876552-18.619256-16.876552-41.555731 0-22.943128 7.563516-41.562384 16.876552-41.562384z" fill="#000"/><g stroke="#000" stroke-linecap="round" stroke-linejoin="round" stroke-width="7.982603"><path d="m515.439993 607.986923s-37.872793 1.762809-48.03265-27.626213c-10.159858-29.38237-31.971654-64.778248-68.231961-59.775861-36.260308 4.995735-57.666322 44.542529-50.335632 97.001069 7.330025 52.451888 20.156072 135.323875 96.409218 187.662677 76.253147 52.33215 90.857983 3.306099 81.176417-30.120754"/><path d="m424.090415 737.031206s-35.072895-54.001829-37.050585-95.032044 17.386109-55.844464 29.913473-56.755803 61.261819 30.48662 36.86765 106.560151"/><path d="m440.522602 612.104579s-23.324499 9.226477-14.29285 32.355864c9.030985 23.129386 29.946734 11.694409 33.987261-.399127"/><path d="m457.228859 679.530367s-25.038763-23.901031-37.789641 12.166709c-8.763567 24.785762 30.848103 48.893009 30.848103 48.893009"/><path d="m486.924141 691.876683s-20.698889-4.204133-22.22024 18.812168c-1.520685 23.0163 21.199132 16.982837 22.184984 33.253898.986516 16.277713-9.595754 14.794293-18.992608 5.574468"/><path d="m467.896277 749.517217s-37.405145-44.469356-6.282308-53.409792c31.122172-8.933783 25.310172-4.230742 25.310172-4.230742"/></g><path d="m546.441761 703.810569s-30.425025 92.46433 12.679034 207.931656c43.103393 115.468655 14.918819 244.579465 14.918819 244.579465s-24.900399 85.87142 55.201027 123.94278c80.100096 38.07135 260.353916 139.70628 299.608364 179.3941 39.247796 39.68715 90.409625 28.2096 157.170795 33.47541s212.96253 26.38626 280.36896 44.10915c0 0 69.24908-123.71229-4.05117-219.34102-59.98926-78.25676-77.37138-47.21402-97.34119-96.06845-19.76359-48.35618-31.96367-115.98752-105.38366-153.73558 0 0-3.32608-74.982588-63.52156-86.85727l3.42587-63.238949-58.41935 21.369903 30.58002 128.487506-40.22566 73.72733s-69.288993-58.35763-42.547275-100.30784c24.460025-38.38134 23.176155-91.291558 23.176155-91.291558l142.15685-52.00154s-16.67699-81.687912-72.94103-97.167372c0 0-29.94141 44.901743-72.58182 71.144317-42.640398 26.242574-58.525777 47.456153-61.765384 86.15946-3.239606 38.701311-18.852246 93.182753-41.848794 99.429753s-55.14648-48.35419-155.248317-14.07919c0 0-37.731101-162.370024-101.475509-230.680542-63.741082-68.310518-101.935175-108.981519-101.935175-108.981519z" fill="#000"/><path d="m768.79117 420.823154s44.529618-69.880416 109.428178-73.532424c64.891907-3.658661 109.029047 42.606765 100.587445 60.946632-8.441602 18.339868-25.783806 13.596913-47.523094-3.073275-21.732636-16.670187-68.630426-63.427869-162.492529 15.659067z" fill="#000"/><path d="m1027.9131 444.870532h-28.511192l-13.969555 234.653183h28.511197z" fill="#000"/><path d="m348.579651 590.471917c-31.37562 24.679329-59.469725 47.802063-72.360298 58.638351-10.915543 9.166607-14.298837 17.787742-9.870488 23.056213 5.778739 6.87163 12.854651 2.26837 24.037612-4.909257 11.769018-7.543493 34.35047-25.537451 60.041146-46.119079zm83.542593-62.243793.007982.006652 16.072305 17.541614c12.719612-8.707612 22.993222-14.707815 29.117874-16.277713 35.895768-9.186564 539.929275-35.715179 539.929275-35.715179v-29.914539s-513.313282 32.31595-543.619233 40.810695c-8.41965 2.361499-23.372395 11.22211-41.508203 23.54847z" fill="#000"/><path d="m987.035526 652.556061s-26.987849-82.293254-22.537548-110.664503c4.037866-25.730362 31.331715-37.045601 31.331715-37.045601l9.000387 21.373229-4.902651 109.766469z" fill="#000"/></g></svg>