<svg height="256" viewBox="0 0 256 256" width="256" xmlns="http://www.w3.org/2000/svg"><g fill="none" fill-rule="evenodd"><path d="m53 99c0-40.6666667 7-66.3333333 21-77s33.666667-15.66666667 59-15c23.333333 2 39.333333 7.3333333 48 16 13 13 21 24 21 70 3.333333-4.6666667 7-7 11-7 8 1.3333333 11.666667 8.3333333 11 21-1 19-8 23-19 30-7.333333 4.666667-11 9-11 13l-36 52h-69l-36-62c-16.6666667-8-23.6666667-20-21-36 3-13 3-19 11-18 5.3333333.6666667 8.6666667 5 10 13z" fill="#fff"/><g stroke="#01111d" transform="translate(32 7)"><g stroke-linejoin="round"><path d="m19.7287791 132c-10.66666667-7.333333-16.66666667-13-18-17-2-6-5-36 9-36 6 0 9.3333333 4.3333333 10 13 1.6283217-24.0649187 2.6283217-37.398252 3-40 4-28 21-52 72-52" stroke-linecap="round" stroke-width="5"/><path d="m115.457558 132c-10.666666-7.333333-16.6666665-13-17.9999998-17-2-6-5-36 8.9999998-36 6 0 9.333334 4.3333333 10 13 1.628322-24.0649187 2.628322-37.398252 3-40 4-28 21-52 72-52" stroke-linecap="round" stroke-width="5" transform="matrix(-1 0 0 1 287.186 0)"/><path d="m80.7287791 117c-4.6666667-2.666667-7.6666667-1-9 5s2.3333333 7 11 3c3.3333333 3.333333 7.6666667 5 13 5" stroke-linecap="round" stroke-width="3"/><path d="m104.995446 117c-4.666667-2.666667-7.6666669-1-9.0000002 5-1.3333334 6 2.3333333 7 11.0000002 3 3.333333 3.333333 7.666666 5 13 5" stroke-linecap="round" stroke-width="3" transform="matrix(-1 0 0 1 215.724 0)"/><path d="m58.7287791 48.5c6.1578947 0 10.2719641 3.0648574 13.3535534 6.1464466 1.9823896 1.9823896 5.2708503 5.9207967 9.8628824 11.8175577l6.3800332-.9114333 2.903531-11.6141238v14.4593091l-13.7078489 3.1633498c-9.2425514-12.57181-15.4860572-19.0611061-18.7921511-19.0611061-3.2520325 0-6.8235045 1.3165949-10.7226499 3.9160251-.7617898.5078599-1.4735689 1.0230078-2.1346765 1.5442964.4230054-.7388707.9063533-1.4891916 1.4504597-2.2509406 3.4566262-4.8392768 7.2722513-7.2093809 11.4068667-7.2093809z" fill="#01111d"/><path d="m103.729 58v10l33-11 7 4-7-11-30 13z" fill="#01111d" stroke-linecap="round"/></g><path d="m96.729 60-1 7" stroke-linecap="round" stroke-width="2"/><path d="m67.7287791 33c4-.6666667 7.6666667 1 11 5 4 5 6 8 12 8.1666667m13.9999999.8333333c4-2 8-3 12-3s7.333333-1 10-3m-22-4c3.333333 0 6.333333-1 9-3m-31.9999999-2c3.3333333 0 6 1 8 3 3 3 4 4 7 4m-17-15c4-.6666667 7.6666667 0 11 2m6 3c2 1.3333333 4.6666669 1.6666667 7.9999999 1m5-1c1.333333 0 3-.6666667 5-2m-105.9999999 82c-2.48585273-12-1.81918607-18 2-18 1.5141473 0 2.6045542 1.6666667 3.2712209 5" stroke-linecap="round" stroke-linejoin="round" stroke-width="3"/><path d="m179.470125 109c-2.485853-12-1.819186-18 2-18 1.514147 0 2.604554 1.6666667 3.271221 5" stroke-linecap="round" stroke-linejoin="round" stroke-width="3" transform="matrix(-1 0 0 1 362.741 0)"/></g><g fill="#01111d" stroke="#01111d" stroke-linejoin="round" transform="translate(50.688 109)"><path d="m2.84842777-1.52553544c.21076908.43708475.42387036.87106101.63930418 1.30192864 2.00891728 4.01783457 4.35577975 8.03559517 7.04033775 12.0534259l.9965267 11.9583196 10.9619146 11.9584523 2.7391357 9.1304525c4.5643683-6.3137065 8.5163202-9.3646023 11.7956169-9.377047 7.4407811-.5782407 13.5478836-4.4857167 18.5254158-7.6541116 3.7604589-2.39368 6.9058129-4.3458849 9.493839-4.3458849 2.2651517 2.058045 3.0460037 2.448996 5.131523 3.0176084 1.2502039.3408654 3.7069252.6810667 7.368477 1.0281016v16.6613968l-3.4222876-3.4222876-1.9390374 2.908556-3-2-2.0609626 3.091444-2.9407367-2.9407367-2 4-3-3-2.0750768 4.1501537-2.0396555-3.0594833-3 5-1.9603445-2.9405167-1.9249232 3.8498463-2.0592633-2.0592633-2.0777124 3.1165686-2.0240193-3.0360288-2.9218837 3.8958449-2.7635917-2.7635918-1.7389829 7.8254232c5.5298653 5.0052578 8.4965836 11.1496409 8.9008513 18.4321861.673589-.9863192 1.5234203-1.9729459 2.5513804-2.958574l1.9421488 1.9421487 3.1879122-4.2505496 1.9169087 4.7922719 3.0418971-6.0837943 2.0584348 6.1753044 4.0326722-6.0490082 2.0309325 7.1082637 3.2405124-4.0506406c-2.0179427-8.1809903-1.8477362-13.1951868.1912738-15.2341968 2.1608818-2.1608818 5.4346899-3.2294408 9.8535534-3.1414188v88.9949722l-3.5-4.666667-2.9 3.866667-4.116994-3.087745-3.046715 2.031143-2.936291-2.936291-3.0992695 3.099269-2.8608555-4.768092-1.9421386 3.884277-4-5-2 4-4-5-2.0578614 4.115723-3-5-1.8735753 3.74715c-4.2941569-3.508467-7.4900519-7.019862-9.5950462-10.528186-2.0127901-3.35465-3.0291021-6.48117-3.9690394-9.381935-1.0121567-3.123644-1.927361-5.981356-3.9926485-8.562965-2.314796-2.893495-3.0079757-6.108524-3.7163417-9.4740897-.52277-2.4837679-1.0580538-5.0498841-2.3404375-7.6146515-3.02683286-6.0536656-5.03892236-10.0910243-6.04776119-17.1528961-.56563611-5.6518814-2.09071509-10.003316-3.48288969-13.9840714-1.07931637-3.0861751-2.07882635-5.9539931-2.51646553-9.0088214-2.00225304-10.0529559-1.00556585-36.1278486 2.00403963-51.17587597.09349909-.46749548.19288482-.94406767.29819975-1.42747737z"/><path d="m79.8889461-1.52553544c.2107691.43708474.4238704.87106101.6393042 1.30192864 2.0089173 4.01783457 4.3557798 8.03559517 7.0403378 12.0534259l.9965266 11.9583196 10.9619146 11.9584523 2.7391357 9.1304525c4.564368-6.3137065 8.51632-9.3646023 11.795617-9.377047 7.440781-.5782407 13.547884-4.4857167 18.525416-7.6541116 3.760459-2.39368 6.905813-4.3458849 9.493839-4.3458849 2.265151 2.058045 3.046003 2.448996 5.131523 3.0176084 1.250204.3408654 3.706925.6810667 7.368477 1.0281016v16.6613968l-3.422288-3.4222876-1.939037 2.908556-3-2-2.060963 3.091444-2.940737-2.9407367-2 4-3-3-2.075076 4.1501537-2.039656-3.0594833-3 5-1.960344-2.9405167-1.924924 3.8498463-2.059263-2.0592633-2.077712 3.1165686-2.02402-3.0360288-2.921883 3.8958449-2.763592-2.7635918-1.738983 7.8254232c5.529865 5.0052578 8.496584 11.1496409 8.900851 18.4321861.673589-.9863192 1.523421-1.9729459 2.551381-2.958574l1.942149 1.9421487 3.187912-4.2505496 1.916909 4.7922719 3.041897-6.0837943 2.058434 6.1753044 4.032673-6.0490082 2.030932 7.1082637 3.240513-4.0506406c-2.017943-8.1809903-1.847737-13.1951868.191273-15.2341968 2.160882-2.1608818 5.43469-3.2294408 9.853554-3.1414188v88.9949722l-3.5-4.666667-2.9 3.866667-4.116994-3.087745-3.046715 2.031143-2.936291-2.936291-3.09927 3.099269-2.860855-4.768092-1.942139 3.884277-4-5-2 4-4-5-2.057861 4.115723-3-5-1.873576 3.74715c-4.294156-3.508467-7.490051-7.019862-9.595046-10.528186-2.01279-3.35465-3.029102-6.48117-3.9690391-9.381935-1.0121568-3.123644-1.9273611-5.981356-3.9926486-8.562965-2.3147959-2.893495-3.0079756-6.108524-3.7163417-9.4740897-.5227699-2.4837679-1.0580538-5.0498841-2.3404375-7.6146515-3.0268328-6.0536656-5.0389223-10.0910243-6.0477611-17.1528961-.5656361-5.6518814-2.0907151-10.003316-3.4828897-13.9840714-1.0793164-3.0861751-2.0788264-5.9539931-2.5164656-9.0088214-2.002253-10.0529559-1.0055658-36.1278486 2.0040397-51.17587597.0934991-.46749548.1928848-.94406767.2981997-1.42747737z" transform="matrix(-1 0 0 1 231.122 0)"/></g><g transform="translate(59.729 71)"><path d="m34 0c13.8071187 0 25 11.1928813 25 25s-11.1928813 25-25 25-25-11.1928813-25-25c0-1.7122946.17214434-3.3843827.5000707-4.9999021l-7.5000707-.0000979c-1.1045695 0-2-.8954305-2-2v-2c0-1.1045695.8954305-2 2-2h9c.1769912 0 .3486127.0229905.5120409.0661481 4.0552752-8.32731553 12.6014291-14.0661481 22.4879591-14.0661481zm0 5c-11.045695 0-20 8.954305-20 20s8.954305 20 20 20 20-8.954305 20-20-8.954305-20-20-20z" fill="#01111d"/><path d="m111 0c13.807119 0 25 11.1928813 25 25s-11.192881 25-25 25c-13.8071187 0-25-11.1928813-25-25 0-1.7122946.1721443-3.3843827.5000707-4.9999021l-7.5000707-.0000979c-1.1045695 0-2-.8954305-2-2v-2c0-1.1045695.8954305-2 2-2h9c.1769912 0 .3486127.0229905.5120409.0661481 4.0552752-8.32731553 12.6014291-14.0661481 22.4879591-14.0661481zm0 5c-11.045695 0-20 8.954305-20 20s8.954305 20 20 20 20-8.954305 20-20-8.954305-20-20-20z" fill="#01111d" transform="matrix(-1 0 0 1 213 0)"/><g stroke="#01111d"><path d="m60 16.5c0 1.1920985.8240718 2.2759313 2.1692601 3.0810863l-4.1692601 5.4189137-3-12 4-4h18l4 4-3 12-4.1682769-5.4195023c1.3446067-.8050945 2.1682769-1.8886897 2.1682769-3.0804977 0-2.4852814-3.581722-4.5-8-4.5s-8 2.0147186-8 4.5z" fill="#01111d" stroke-linejoin="round"/><path d="m24 30 16-16" stroke-linecap="round" stroke-width="3"/><path d="m92 30 16-16" stroke-linecap="round" stroke-width="3"/><path d="m30.75 31.75 11.5-11.5" stroke-linecap="round" stroke-width="3"/><path d="m98.75 31.75 11.5-11.5" stroke-linecap="round" stroke-width="3"/></g><circle cx="4" cy="17" fill="#fff" r="1"/><circle cx="8" cy="17" fill="#fff" r="1"/><circle cx="128" cy="17" fill="#fff" r="1"/><circle cx="132" cy="17" fill="#fff" r="1"/></g></g></svg>